PathFileType	4	(X/Y/Z)	D:\TRACE\v60_Jaco2_6-2-23\BothDRS_Motion1_3-v60.trc
DataRate	CameraRate	NumFrames	NumMarkers	Units	OrigDataRate	OrigDataStartFrame	OrigNumFrames
100.00	100.00	      24	9	mm	100.00	885	      7073
Frame#	Time	front left toe			Front right toe			aft left toe			aft right toe			Arm			FL body			FR body			AL Body			AR Body			
		X1	Y1	Z1	X2	Y2	Z2	X3	Y3	Z3	X4	Y4	Z4	X5	Y5	Z5	X6	Y6	Z6	X7	Y7	Z7	X8	Y8	Z8	X9	Y9	Z9	

885	8.840	-243.78969	51.49507	-421.22473	149.31349	22.54112	-455.68842	-193.03961	10.37288	190.77100	120.13562	35.08966	200.07011	-8.97747	1226.77600	-572.91101	-132.14633	599.03918	-563.69373	27.29240	593.29431	-574.55304	-70.25769	548.86633	378.61890	86.18791	538.00183	371.95969	
886	8.850	-242.33240	61.22707	-420.43427	150.03699	22.22740	-455.64285	-192.32523	10.77519	190.87865	122.35484	44.93419	200.08325	-7.94823	1228.02905	-572.72009	-130.32687	598.34747	-564.12640	28.86824	592.47528	-574.97552	-68.09544	548.35352	377.99414	87.75460	538.25165	371.66360	
887	8.860	-241.23482	72.65600	-422.07858	151.34448	21.81534	-455.63702	-191.99953	10.75633	190.83324	128.76299	58.31178	197.00786	-6.81524	1227.85815	-572.65833	-128.86282	597.72253	-564.23193	30.67070	592.16101	-575.51105	-66.63220	548.43860	378.00204	89.56783	538.42401	371.07809	
888	8.870	-241.16205	84.03214	-422.73102	152.01321	21.60961	-455.50269	-190.83987	10.53927	190.82208	135.06059	69.78559	195.19530	-4.81317	1226.89221	-572.92291	-127.57781	597.37207	-564.60535	32.56633	591.55939	-575.59302	-65.37373	548.72675	377.94562	90.69148	538.19421	370.99026	
889	8.880	-239.48383	95.76146	-424.30057	153.12056	21.18534	-455.64536	-189.81448	10.20886	190.61528	141.52237	80.87377	193.40718	-3.03058	1225.74243	-573.81769	-126.23344	596.79218	-564.67041	33.59258	590.98236	-575.19952	-64.03144	548.04272	377.97360	92.33681	537.50708	371.34564	
890	8.890	-236.60448	106.78688	-425.30539	154.38762	21.00847	-455.63516	-189.44780	10.35917	190.57368	149.09322	92.91922	191.06763	-0.94278	1224.28040	-574.97864	-124.94711	596.51196	-564.68323	35.47675	590.76190	-575.55542	-62.59668	547.53229	378.07526	93.83371	536.99280	371.34323	
891	8.900	-233.88710	117.68223	-426.12939	155.25029	20.39781	-455.84726	-188.39203	10.28717	190.29131	154.14066	103.48502	189.36943	1.02722	1223.11548	-576.06982	-122.86942	595.66241	-564.47705	37.15137	590.07526	-575.48236	-61.01769	547.51318	378.17334	94.98503	536.87469	371.45169	
892	8.910	-230.94756	127.26843	-426.52603	156.53587	20.28593	-455.74216	-187.08859	10.50688	190.30336	158.42052	113.79748	187.80740	3.10581	1222.22095	-576.75385	-121.86926	595.38074	-564.48401	38.70347	589.48749	-575.25348	-60.47049	547.76587	378.55496	96.87278	536.87372	371.79532	
893	8.920	-228.28931	135.87297	-426.49615	157.37221	19.96981	-455.74194	-186.72591	10.87181	190.43929	162.15182	123.18252	186.93610	4.48267	1221.55945	-577.08807	-119.85394	594.30090	-564.26898	39.96075	588.73523	-575.10168	-57.49321	547.11285	378.67480	98.91763	537.03864	372.00589	
894	8.930	-225.14183	142.52200	-426.28204	158.02872	19.63338	-455.73773	-185.67560	10.77553	190.31062	166.28441	131.55003	186.06750	5.66519	1221.09814	-576.82227	-117.82416	593.16840	-563.52625	42.06341	587.72723	-574.76031	-55.71387	547.53815	379.01282	99.82211	537.50006	372.03067	
895	8.940	-224.22992	148.03766	-425.06467	159.48436	19.07380	-455.84744	-184.42639	10.69738	190.19623	170.94264	137.65517	184.94034	6.86342	1220.72498	-576.35101	-116.09196	592.33044	-563.06366	43.01020	586.56628	-574.10846	-54.58237	548.44000	379.45514	101.67820	537.63989	372.48621	
896	8.950	-221.82358	150.18205	-423.49753	160.70985	19.13641	-455.58221	-183.79820	11.05062	190.32755	177.74437	141.19659	184.66891	8.17459	1220.29712	-576.26093	-114.88657	591.53888	-563.20990	44.75429	585.73090	-573.63232	-52.52608	548.89301	379.78729	104.72361	537.77954	371.05682	
897	8.960	-219.43678	150.34424	-421.96851	160.75754	18.79809	-455.83060	-182.92426	11.21721	190.26685	184.45770	142.00359	184.81189	9.81848	1219.55420	-576.30762	-112.82668	590.72070	-562.32068	46.98806	585.20715	-573.37512	-51.72968	548.93457	380.32562	105.08315	537.90326	371.49457	
898	8.970	-215.98604	147.23822	-420.02347	163.24643	18.86234	-455.27722	-182.08946	11.34821	190.16092	191.13690	139.84435	185.67325	12.01911	1218.41992	-576.79340	-110.80273	589.92792	-561.92188	49.18776	584.66241	-573.15668	-49.50938	548.39868	380.54709	106.42465	538.26544	373.92191	
899	8.980	-212.47760	142.49638	-418.68207	162.73903	17.87878	-455.92657	-181.09247	11.45236	190.30717	196.22845	135.75960	186.46317	14.09855	1217.49670	-577.44940	-110.15015	589.71179	-561.63751	50.08374	584.00024	-572.05359	-48.18595	548.87885	381.52173	107.89075	538.42389	374.60519	
900	8.990	-208.58952	137.20216	-417.18869	163.56165	17.72613	-456.08698	-180.44151	11.72050	190.22614	201.58536	131.15044	187.14705	15.76243	1216.26245	-577.70819	-107.83508	588.72760	-560.73004	51.99694	583.58441	-571.79333	-46.49227	548.72430	382.19101	109.61107	538.40857	375.34348	
901	9.000	-204.14618	130.47009	-416.02191	164.79182	17.42529	-455.92035	-179.40822	11.67815	190.07228	206.15045	125.19505	187.73355	17.37751	1215.40198	-577.84558	-105.46228	587.79163	-559.91119	53.71769	583.10889	-571.77582	-44.28429	548.66437	382.53305	111.71844	538.13983	376.24109	
902	9.010	-200.32492	124.10213	-414.76349	165.25935	17.01575	-455.84573	-178.63698	11.79675	190.10251	211.09009	118.65511	188.24574	17.98291	1215.09717	-577.50507	-104.50211	587.65723	-559.70026	55.29075	582.24945	-570.22394	-42.38403	548.10938	383.30374	113.26555	538.65649	376.77737	
903	9.020	-197.06418	117.36796	-413.75232	166.33345	16.44309	-456.02112	-177.78899	12.23825	189.93552	216.96423	111.28677	189.03435	19.05743	1214.83447	-576.69183	-101.86958	586.84583	-558.96313	57.23656	581.71906	-569.75421	-40.76422	548.74744	384.08252	115.48779	538.58221	377.42856	
904	9.030	-193.40683	109.26749	-412.45456	167.51683	16.46634	-455.98679	-176.81477	12.06717	189.87338	223.10187	102.98554	189.47319	19.99930	1214.63281	-575.88684	-100.01715	586.22266	-558.19098	59.63660	581.29529	-569.19312	-38.83002	548.58673	384.67004	117.28671	538.70441	378.04758	
905	9.040	-189.64697	100.28159	-410.80283	168.27179	16.08151	-456.23849	-175.93018	12.09452	189.84616	229.40260	95.96278	189.79210	21.12325	1214.38367	-574.90497	-98.29956	585.62061	-557.86255	61.71003	580.89453	-568.57581	-36.52479	548.10992	385.39316	119.42214	538.67798	378.54712	
906	9.050	-185.69728	90.80468	-409.01578	169.02995	15.83303	-456.10034	-175.28067	12.27352	189.87634	235.74608	87.53383	190.02992	22.95561	1214.16272	-574.01953	-96.80334	585.01868	-556.99670	63.06471	580.20135	-567.39752	-34.94626	548.48639	386.22620	120.96301	538.49426	379.28915	
907	9.060	-181.37117	81.09023	-406.91232	170.04694	15.32696	-456.03873	-174.20799	12.46117	189.99071	241.71732	79.06274	190.91183	24.49060	1213.78442	-573.64093	-94.01365	584.34662	-555.68964	65.17085	580.08679	-567.07764	-32.63743	547.52460	387.02362	123.43633	538.48602	380.46548	
908	9.070	-176.88875	71.26228	-404.68283	170.90791	15.09868	-456.31845	-173.42247	12.65655	189.89108	247.51447	70.83645	192.07603	26.33492	1213.31592	-573.20850	-92.27608	584.02533	-555.04242	67.43849	579.90253	-566.09705	-30.66094	547.90070	387.91281	125.38041	538.52875	380.91522	
